<svg xmlns="http://www.w3.org/2000/svg" viewBox="0 0 300 91"><defs><style>.cls-1{fill:#231f20;}.cls-2{fill:none;}</style></defs><title>Wacom One Logo</title><path d="M17.23 64.67h2.1A9.13 9.13 0 0 1 10 72a10.2 10.2 0 0 1 0-20.4 9.13 9.13 0 0 1 9.3 7.3h-2.1A7 7 0 0 0 10 53.5 8.24 8.24 0 0 0 10 70a7 7 0 0 0 7.23-5.33zM25.6 60.55a6.34 6.34 0 0 1 5.23-2.65v1.87a6.15 6.15 0 0 0-5.22 3.1v8.7h-2V58.24h2zM46.15 65.48H34.72a4.93 4.93 0 0 0 5 4.75 4.06 4.06 0 0 0 3.86-2h2.13c-.7 2.23-3.06 3.77-6 3.77a7.06 7.06 0 0 1 0-14.12c3.83 0 6.48 2.94 6.5 7a4 4 0 0 1-.05.6zm-11.43-1.33h9.47c-.24-2.7-1.94-4.6-4.53-4.6a4.9 4.9 0 0 0-4.95 4.6zM63 58.25v13.3h-2V70.1a6.78 6.78 0 0 1-4.8 1.83 7 7 0 0 1 0-14 6.78 6.78 0 0 1 4.8 1.8v-1.48zm-2 9.53v-5.73a5.37 5.37 0 0 0-4.55-2.42 5.3 5.3 0 0 0 0 10.57A5.4 5.4 0 0 0 61 67.78zM76.55 71.53a9.9 9.9 0 0 1-2.88.46c-3 0-4.6-1.77-4.6-5.23v-6.83H65.5v-1.7h3.56v-4.92h2v4.93h5v1.7H71v6.82c0 2.42 1 3.4 3 3.4a8.67 8.67 0 0 0 2.22-.34zM80.3 53.2a1.36 1.36 0 1 1 1.35 1.33 1.3 1.3 0 0 1-1.36-1.33zm2.36 5v13.36h-2v-13.3zM94 71.56h-1.78l-6.34-13.3H88l5.13 10.8 5.12-10.8h2.14zM115.24 65.48H103.8a5 5 0 0 0 5 4.75 4.06 4.06 0 0 0 3.86-2h2.13c-.8 2.27-3.12 3.77-6 3.77a7.06 7.06 0 0 1 0-14.12c3.82 0 6.47 2.94 6.5 7a4 4 0 0 1-.06.6zm-11.44-1.33h9.48c-.23-2.7-1.93-4.6-4.52-4.6a4.9 4.9 0 0 0-4.96 4.6zM134.4 52c4.5 0 7.5 2.6 7.5 6.5s-3.1 6.64-7.76 6.64h-4.52v6.46h-2.05V52zm-.08 11.27c3.34 0 5.56-1.93 5.56-4.78s-2.22-4.62-5.56-4.62h-4.7v9.4zM157 65.48h-11.42a4.94 4.94 0 0 0 5 4.75 4 4 0 0 0 3.86-2h2.14c-.78 2.27-3.12 3.77-6.05 3.77a7.06 7.06 0 0 1 0-14.12c3.83 0 6.48 2.94 6.5 7a4 4 0 0 1-.03.6zm-11.44-1.33h9.48c-.23-2.7-1.93-4.6-4.52-4.6a4.9 4.9 0 0 0-4.94 4.6zM173.47 63.9v7.66h-2V64c0-2.77-1.6-4.35-4-4.35a5.75 5.75 0 0 0-4.58 2.48v9.45h-2V58.25h2v1.58a6.74 6.74 0 0 1 4.9-2c3.34-.02 5.67 2.32 5.67 6.06zM192.7 52c6.04 0 10.3 4 10.3 9.66 0 5.84-4.26 9.94-10.3 9.94h-6.8V52zm0 17.72a7.8 7.8 0 0 0 8.2-8.06c0-4.53-3.4-7.78-8.2-7.78h-4.77v15.8zM207.24 53.2a1.3 1.3 0 0 1 1.35-1.32 1.33 1.33 0 1 1 0 2.65 1.3 1.3 0 0 1-1.36-1.33zm2.36 5v13.36h-2v-13.3zM215.53 67.44c.4 1.8 1.82 2.9 4.38 2.9 2.2 0 3.67-.92 3.67-2.36 0-1.18-.95-1.9-2.3-2.1l-3.06-.52c-2.2-.36-3.93-1.36-3.93-3.57s2.16-3.96 5.36-3.96c2.7 0 5.53 1.18 5.76 4.24h-1.86c-.23-1.73-1.67-2.65-3.9-2.65s-3.4.92-3.4 2.2c0 1 .7 1.8 2.6 2.1l2.66.45c1.9.32 4 1.15 4 3.7S223.14 72 219.9 72c-3.47 0-5.8-1.53-6.2-4.55zM243 64.9a6.93 6.93 0 0 1-6.9 7 6.76 6.76 0 0 1-4.83-1.87v8.67h-1.95V58.25h1.95v1.52a6.76 6.76 0 0 1 4.84-1.87 6.93 6.93 0 0 1 6.9 7zm-2 0a5.2 5.2 0 0 0-5.15-5.27 5.32 5.32 0 0 0-4.6 2.48v5.62a5.35 5.35 0 0 0 4.6 2.48 5.2 5.2 0 0 0 5.15-5.3zM249 71.56h-2V51.1h2zM266.76 58.25v13.3h-2V70.1a6.78 6.78 0 0 1-4.76 1.83 7 7 0 0 1 0-14 6.78 6.78 0 0 1 4.8 1.84v-1.52zm-2 9.53v-5.73a5.36 5.36 0 0 0-4.55-2.42 5.3 5.3 0 0 0 0 10.57 5.38 5.38 0 0 0 4.57-2.42zM275.5 78.7h-2.1l2.93-6.45-6.8-14h2.13l5.7 11.75 5.36-11.72h2.1zM194.58 6.35a3.32 3.32 0 0 1-4.7 0 3.23 3.23 0 0 1-1-2.36 3.17 3.17 0 0 1 1-2.35 3.33 3.33 0 0 1 4.7 0 3.2 3.2 0 0 1 1 2.34 3.25 3.25 0 0 1-1 2.35M190.2 2a2.77 2.77 0 0 0-.83 2 2.8 2.8 0 0 0 .83 2 2.86 2.86 0 0 0 4.05 0 2.8 2.8 0 0 0 .83-2 2.8 2.8 0 0 0-.83-2 2.85 2.85 0 0 0-4 0m1.95.18a2.66 2.66 0 0 1 1 .14.9.9 0 0 1 .57.92.8.8 0 0 1-.36.73 1.27 1.27 0 0 1-.5.17.9.9 0 0 1 .6.36.94.94 0 0 1 .2.57v.23a2.72 2.72 0 0 0 0 .28 1.25 1.25 0 0 0 0 .2h-.6v-.45a.93.93 0 0 0-.33-.84 1.55 1.55 0 0 0-.72-.13h-.5V5.8h-.65V2.16zm.7.6a1.55 1.55 0 0 0-.8-.15h-.54v1.3h.58a1.94 1.94 0 0 0 .62-.1.56.56 0 0 0 .37-.56c0-.27-.07-.45-.24-.53M163.48 4.38C161.38 1.65 158.58.5 154 .5c-6.9 0-11.35 3.9-11.35 9.95V34.7H147V11c0-4.2 2.36-6.24 7.2-6.24 4.6 0 7.12 2.07 7.12 5.84v24.1h4.35V10.6c0-3.76 2.53-5.83 7.12-5.83 4.83 0 7.2 2 7.2 6.24v23.7h4.34V10.46c0-6-4.46-9.94-11.35-9.94-4.6 0-7.38 1.15-9.5 3.88" class="cls-1"/><path d="M125.82.42h-5.64c-8 0-11.66 5.32-11.66 10.27v13.9c0 4.95 3.64 10.27 11.63 10.27h5.7c8 0 11.64-5.32 11.64-10.26V10.7C137.5 5.73 133.83.4 125.8.4m7.32 23.63c0 4.17-2.73 6.55-7.48 6.55h-5.3c-4.84 0-7.5-2.33-7.5-6.55v-12.8c0-4.17 2.73-6.56 7.5-6.56h5.3c4.75 0 7.48 2.38 7.48 6.55zM91.66.42C83.66.42 80 5.74 80 10.7v13.9c0 4.95 3.64 10.27 11.63 10.27h5c4.07 0 6.72-.6 8.86-2l.27-.18-2.5-3.64-.25.16c-1.6 1-3.62 1.36-7 1.36h-4.16c-4.83 0-7.5-2.33-7.5-6.55V11.25C84.37 7 87 4.7 91.87 4.7H96c3.34 0 5.35.4 7 1.36l.26.15 2.5-3.6-.3-.2c-2.13-1.38-4.78-2-8.85-2zM59.46.42a19 19 0 0 0-7.68 1.2l-.35.13 2.18 3.87.27-.1C55.35 4.9 57 4.68 60 4.68h3.26c4.75 0 7.48 2.38 7.48 6.55v12.8c0 4.17-2.73 6.55-7.48 6.55H58c-4.88 0-7.25-2-7.25-6s2.37-6 7.25-6h7.4v-4.3h-7.63c-7.24 0-11.38 3.76-11.38 10.3 0 6.34 4.35 10.27 11.37 10.27h5.72c8 0 11.62-5.32 11.62-10.26V10.7C75.12 5.73 71.48.4 63.5.4zM38 .67v23.7c0 4.2-2.36 6.23-7.2 6.23-4.6 0-7.13-2.07-7.13-5.83V.67H19.3v24.1c0 3.76-2.52 5.83-7.12 5.83-4.85 0-7.2-2-7.2-6.23V.67H.63v24.26c0 6 4.46 9.94 11.35 9.94 4.6 0 7.38-1.14 9.5-3.87 2.1 2.73 4.9 3.87 9.5 3.87 6.9 0 11.34-3.9 11.34-9.94V.67zM224.7 24.92a10.2 10.2 0 1 1-10.2-10.2 10.2 10.2 0 0 1 10.2 10.2zm-2.08 0a8.14 8.14 0 1 0-8.12 8.3 8.2 8.2 0 0 0 8.12-8.3zM241.55 27.05v7.67h-2v-7.58c0-2.77-1.6-4.35-4-4.35a5.75 5.75 0 0 0-4.55 2.47v9.45h-2V21.4h2V23a6.74 6.74 0 0 1 4.92-2c3.3 0 5.63 2.3 5.63 6.05zM258.43 28.64H247a4.93 4.93 0 0 0 5 4.75 4 4 0 0 0 3.86-2.06H258c-.78 2.28-3.1 3.78-6 3.78a6.8 6.8 0 0 1-6.9-7.06A6.78 6.78 0 0 1 252 21c3.83 0 6.48 2.94 6.5 7a4 4 0 0 1-.07.64zM247 27.3h9.47c-.23-2.7-1.93-4.6-4.52-4.6a4.9 4.9 0 0 0-4.95 4.6z" class="cls-1"/><path d="M-41.1-41.03h367.64v154.28H-41.1z" class="cls-2"/></svg>